<svg width="21" height="18" viewBox="0 0 21 18" fill="none" xmlns="http://www.w3.org/2000/svg">
<g clip-path="url(#clip0_2322_38)">
<path d="M15.4062 5.41877C15.0344 5.20627 14.5562 5.20627 14.1312 5.41877L11.1562 7.1719L9.1375 8.28752L6.21562 10.0406C5.84375 10.2531 5.36562 10.2531 4.94062 10.0406L2.65625 8.6594C2.28437 8.4469 2.01875 8.0219 2.01875 7.54377V4.88752C2.01875 4.46252 2.23125 4.03752 2.65625 3.7719L4.94062 2.44377C5.3125 2.23127 5.79062 2.23127 6.21562 2.44377L8.5 3.82502C8.87187 4.03752 9.1375 4.46252 9.1375 4.94065V6.69377L11.1562 5.52502V3.71877C11.1562 3.29377 10.9437 2.86877 10.5187 2.60315L6.26875 0.106274C5.89687 -0.106226 5.41875 -0.106226 4.99375 0.106274L0.6375 2.65627C0.2125 2.86877 0 3.29377 0 3.71877V8.71252C0 9.13752 0.2125 9.56252 0.6375 9.82815L4.94062 12.325C5.3125 12.5375 5.79062 12.5375 6.21562 12.325L9.1375 10.625L11.1562 9.45627L14.0781 7.75627C14.45 7.54377 14.9281 7.54377 15.3531 7.75627L17.6375 9.0844C18.0094 9.2969 18.275 9.7219 18.275 10.2V12.8563C18.275 13.2813 18.0625 13.7063 17.6375 13.9719L15.4062 15.3C15.0344 15.5125 14.5562 15.5125 14.1312 15.3L11.8469 13.9719C11.475 13.7594 11.2094 13.3344 11.2094 12.8563V11.1563L9.19062 12.325V14.0781C9.19062 14.5031 9.40312 14.9281 9.82812 15.1938L14.1312 17.6906C14.5031 17.9031 14.9812 17.9031 15.4062 17.6906L19.7094 15.1938C20.0812 14.9813 20.3469 14.5563 20.3469 14.0781V9.03127C20.3469 8.60627 20.1344 8.18127 19.7094 7.91565L15.4062 5.41877Z" fill="#888888"/>
</g>
<defs>
<clipPath id="clip0_2322_38">
<rect width="20.4" height="17.7969" fill="white"/>
</clipPath>
</defs>
</svg>
